<svg xmlns="http://www.w3.org/2000/svg" xmlns:xlink="http://www.w3.org/1999/xlink" width="175" zoomAndPan="magnify" viewBox="0 0 131.25 56.249996" height="75" preserveAspectRatio="xMidYMid meet" version="1.0"><defs><g/><clipPath id="fc79a658d4"><path d="M 0.492188 0 L 130.015625 0 L 130.015625 34 L 0.492188 34 Z M 0.492188 0 " clip-rule="nonzero"/></clipPath><clipPath id="a04e4a8f99"><path d="M 26 22 L 103 22 L 103 55.511719 L 26 55.511719 Z M 26 22 " clip-rule="nonzero"/></clipPath></defs><g fill="#a6a6a6" fill-opacity="1"><g transform="translate(5.47387, 27.704261)"><g><path d="M 0.453125 0 L 8.046875 -18.46875 L 10.203125 -18.46875 L 17.796875 0 L 15.34375 0 L 13.609375 -4.1875 L 4.609375 -4.1875 L 2.921875 0 Z M 5.515625 -6.359375 L 12.734375 -6.359375 L 9.125 -15.21875 Z M 5.515625 -6.359375 "/></g></g></g><g fill="#a6a6a6" fill-opacity="1"><g transform="translate(23.719947, 27.704261)"><g><path d="M 2.6875 0 L 2.6875 -18.46875 L 4.875 -18.46875 L 15.09375 -4.015625 L 15.09375 -18.46875 L 17.359375 -18.46875 L 17.359375 0 L 15.1875 0 L 4.984375 -14.453125 L 4.984375 0 Z M 2.6875 0 "/></g></g></g><g fill="#a6a6a6" fill-opacity="1"><g transform="translate(43.758994, 27.704261)"><g><path d="M 2.6875 0 L 2.6875 -18.46875 L 9.078125 -18.46875 C 10.972656 -18.46875 12.628906 -18.070312 14.046875 -17.28125 C 15.460938 -16.5 16.566406 -15.414062 17.359375 -14.03125 C 18.148438 -12.65625 18.546875 -11.054688 18.546875 -9.234375 C 18.546875 -7.421875 18.148438 -5.816406 17.359375 -4.421875 C 16.566406 -3.035156 15.460938 -1.953125 14.046875 -1.171875 C 12.628906 -0.390625 10.972656 0 9.078125 0 Z M 5.015625 -2.21875 L 9.078125 -2.21875 C 10.484375 -2.21875 11.71875 -2.507812 12.78125 -3.09375 C 13.84375 -3.6875 14.671875 -4.507812 15.265625 -5.5625 C 15.867188 -6.613281 16.171875 -7.835938 16.171875 -9.234375 C 16.171875 -10.640625 15.863281 -11.863281 15.25 -12.90625 C 14.644531 -13.957031 13.804688 -14.773438 12.734375 -15.359375 C 11.660156 -15.953125 10.40625 -16.25 8.96875 -16.25 L 5.015625 -16.25 Z M 5.015625 -2.21875 "/></g></g></g><g fill="#a6a6a6" fill-opacity="1"><g transform="translate(63.824411, 27.704261)"><g><path d="M 2.6875 0 L 2.6875 -18.46875 L 9.734375 -18.46875 C 11.015625 -18.46875 12.128906 -18.222656 13.078125 -17.734375 C 14.023438 -17.253906 14.765625 -16.570312 15.296875 -15.6875 C 15.828125 -14.8125 16.09375 -13.757812 16.09375 -12.53125 C 16.09375 -11.03125 15.703125 -9.789062 14.921875 -8.8125 C 14.148438 -7.84375 13.085938 -7.191406 11.734375 -6.859375 L 16.375 0 L 13.578125 0 L 9.078125 -6.625 L 5.015625 -6.625 L 5.015625 0 Z M 5.015625 -8.828125 L 9.46875 -8.828125 C 10.820312 -8.828125 11.867188 -9.148438 12.609375 -9.796875 C 13.347656 -10.441406 13.71875 -11.351562 13.71875 -12.53125 C 13.71875 -13.707031 13.347656 -14.617188 12.609375 -15.265625 C 11.867188 -15.921875 10.820312 -16.25 9.46875 -16.25 L 5.015625 -16.25 Z M 5.015625 -8.828125 "/></g></g></g><g fill="#a6a6a6" fill-opacity="1"><g transform="translate(81.780449, 27.704261)"><g><path d="M 2.6875 0 L 2.6875 -18.46875 L 13.90625 -18.46875 L 13.90625 -16.296875 L 5.015625 -16.296875 L 5.015625 -10.46875 L 13.234375 -10.46875 L 13.234375 -8.328125 L 5.015625 -8.328125 L 5.015625 -2.15625 L 14.1875 -2.15625 L 14.1875 0 Z M 2.6875 0 "/></g></g></g><g fill="#a6a6a6" fill-opacity="1"><g transform="translate(97.679848, 27.704261)"><g><path d="M 2.6875 0 L 2.6875 -18.46875 L 5.015625 -18.46875 L 5.015625 0 Z M 2.6875 0 "/></g></g></g><g fill="#a6a6a6" fill-opacity="1"><g transform="translate(105.379064, 27.704261)"><g><path d="M 2.5 -14.140625 C 3 -14.316406 3.375 -14.601562 3.625 -15 C 3.882812 -15.40625 3.992188 -15.882812 3.953125 -16.4375 C 3.828125 -16.394531 3.707031 -16.363281 3.59375 -16.34375 C 3.476562 -16.332031 3.378906 -16.328125 3.296875 -16.328125 C 2.804688 -16.328125 2.398438 -16.488281 2.078125 -16.8125 C 1.765625 -17.132812 1.609375 -17.535156 1.609375 -18.015625 C 1.609375 -18.503906 1.769531 -18.90625 2.09375 -19.21875 C 2.414062 -19.539062 2.851562 -19.703125 3.40625 -19.703125 C 4.070312 -19.703125 4.609375 -19.453125 5.015625 -18.953125 C 5.429688 -18.460938 5.640625 -17.816406 5.640625 -17.015625 C 5.640625 -16.296875 5.503906 -15.625 5.234375 -15 C 4.960938 -14.382812 4.585938 -13.878906 4.109375 -13.484375 C 3.640625 -13.085938 3.101562 -12.847656 2.5 -12.765625 Z M 2.5 -14.140625 "/></g></g></g><g fill="#a6a6a6" fill-opacity="1"><g transform="translate(112.630039, 27.704261)"><g><path d="M 8.828125 0.34375 C 7.359375 0.34375 6.082031 0.09375 5 -0.40625 C 3.914062 -0.90625 3.078125 -1.609375 2.484375 -2.515625 C 1.898438 -3.421875 1.597656 -4.472656 1.578125 -5.671875 L 3.90625 -5.671875 C 3.9375 -4.492188 4.40625 -3.566406 5.3125 -2.890625 C 6.21875 -2.210938 7.390625 -1.875 8.828125 -1.875 C 10.128906 -1.875 11.160156 -2.128906 11.921875 -2.640625 C 12.691406 -3.148438 13.078125 -3.863281 13.078125 -4.78125 C 13.078125 -5.632812 12.707031 -6.320312 11.96875 -6.84375 C 11.226562 -7.363281 10.023438 -7.816406 8.359375 -8.203125 C 6.085938 -8.742188 4.425781 -9.441406 3.375 -10.296875 C 2.320312 -11.148438 1.796875 -12.289062 1.796875 -13.71875 C 1.796875 -15.28125 2.390625 -16.519531 3.578125 -17.4375 C 4.765625 -18.351562 6.367188 -18.8125 8.390625 -18.8125 C 10.460938 -18.8125 12.097656 -18.289062 13.296875 -17.25 C 14.503906 -16.207031 15.117188 -14.789062 15.140625 -13 L 12.84375 -13 C 12.820312 -14.113281 12.410156 -14.988281 11.609375 -15.625 C 10.816406 -16.269531 9.742188 -16.59375 8.390625 -16.59375 C 7.066406 -16.59375 6.03125 -16.332031 5.28125 -15.8125 C 4.539062 -15.289062 4.171875 -14.59375 4.171875 -13.71875 C 4.171875 -12.957031 4.515625 -12.316406 5.203125 -11.796875 C 5.898438 -11.285156 7.144531 -10.804688 8.9375 -10.359375 C 11.289062 -9.785156 12.96875 -9.0625 13.96875 -8.1875 C 14.976562 -7.320312 15.484375 -6.210938 15.484375 -4.859375 C 15.484375 -3.253906 14.878906 -1.984375 13.671875 -1.046875 C 12.472656 -0.117188 10.859375 0.34375 8.828125 0.34375 Z M 8.828125 0.34375 "/></g></g></g><g clip-path="url(#fc79a658d4)"><path stroke-linecap="butt" transform="matrix(0.740131, 0, 0, 0.740131, 0.493425, 4.648418)" fill="none" stroke-linejoin="miter" d="M 4.188884 27.998641 L 14.443607 3.05586 L 17.367496 3.05586 L 27.638053 27.998641 L 24.323608 27.998641 L 21.974997 22.335585 L 9.814995 22.335585 L 7.534995 27.998641 Z M 11.028884 19.411695 L 20.787496 19.411695 L 15.905551 7.441694 Z M 31.865553 27.998641 L 31.865553 3.05586 L 34.826387 3.05586 L 48.617222 22.578362 L 48.617222 3.05586 L 51.678333 3.05586 L 51.678333 27.998641 L 48.754444 27.998641 L 34.963609 8.465583 L 34.963609 27.998641 Z M 58.940556 27.998641 L 58.940556 3.05586 L 67.564446 3.05586 C 70.129446 3.05586 72.367224 3.583638 74.283058 4.639194 C 76.198891 5.69475 77.687225 7.156694 78.753336 9.025028 C 79.824725 10.882806 80.357781 13.051973 80.357781 15.521973 C 80.357781 17.970862 79.824725 20.134751 78.753336 22.01364 C 77.687225 23.887252 76.198891 25.354474 74.283058 26.415307 C 72.367224 27.470863 70.129446 27.998641 67.564446 27.998641 Z M 62.075556 25.006141 L 67.564446 25.006141 C 69.469724 25.006141 71.137502 24.610307 72.56778 23.813363 C 74.008613 23.021696 75.127502 21.908085 75.935002 20.483084 C 76.74778 19.052807 77.154169 17.400862 77.154169 15.521973 C 77.154169 13.62725 76.742502 11.970028 75.919169 10.555583 C 75.101113 9.141139 73.966391 8.032805 72.515002 7.241139 C 71.074169 6.444194 69.374724 6.048361 67.427224 6.048361 L 62.075556 6.048361 Z M 86.052503 27.998641 L 86.052503 3.05586 L 95.56306 3.05586 C 97.299449 3.05586 98.808894 3.383083 100.086116 4.037527 C 101.373894 4.686694 102.376672 5.605027 103.089172 6.797805 C 103.801672 7.985305 104.160561 9.410306 104.160561 11.067528 C 104.160561 13.094195 103.638061 14.761973 102.587783 16.081417 C 101.542783 17.395584 100.107227 18.282251 98.275838 18.730862 L 104.551117 27.998641 L 100.766949 27.998641 L 94.676393 19.052807 L 89.187504 19.052807 L 89.187504 27.998641 Z M 89.187504 16.060306 L 95.209449 16.060306 C 97.040838 16.060306 98.455283 15.627528 99.452783 14.767251 C 100.450283 13.896417 100.951672 12.661417 100.951672 11.067528 C 100.951672 9.478917 100.450283 8.243917 99.452783 7.367805 C 98.455283 6.486416 97.040838 6.048361 95.209449 6.048361 L 89.187504 6.048361 Z M 110.314451 27.998641 L 110.314451 3.05586 L 125.461674 3.05586 L 125.461674 5.97975 L 113.444173 5.97975 L 113.444173 13.854195 L 124.564452 13.854195 L 124.564452 16.74114 L 113.444173 16.74114 L 113.444173 25.074752 L 125.85223 25.074752 L 125.85223 27.998641 Z M 131.795008 27.998641 L 131.795008 3.05586 L 134.930009 3.05586 L 134.930009 27.998641 Z M 141.944176 8.898361 C 142.614454 8.660861 143.115843 8.270305 143.458899 7.726694 C 143.807232 7.177805 143.95501 6.533916 143.902232 5.795027 C 143.738621 5.842527 143.580287 5.879472 143.427232 5.905861 C 143.268898 5.93225 143.131676 5.942805 143.015565 5.942805 C 142.350565 5.942805 141.801676 5.721138 141.374176 5.283083 C 140.946676 4.839749 140.735565 4.296138 140.735565 3.652249 C 140.735565 2.992527 140.951954 2.448916 141.390009 2.016138 C 141.828065 1.588638 142.419176 1.372249 143.152787 1.372249 C 144.060565 1.372249 144.788899 1.710027 145.348343 2.375027 C 145.913065 3.040027 146.192788 3.921416 146.192788 5.013916 C 146.192788 5.985027 146.008065 6.892805 145.633343 7.726694 C 145.269176 8.555305 144.76251 9.236139 144.118621 9.769194 C 143.474732 10.30225 142.751676 10.63475 141.944176 10.756139 Z M 160.295011 28.463085 C 158.300011 28.463085 156.574178 28.125308 155.112233 27.449752 C 153.650288 26.774196 152.520844 25.824196 151.723899 24.599752 C 150.932233 23.375307 150.520566 21.950307 150.499455 20.335307 L 153.629177 20.335307 C 153.676677 21.929196 154.310011 23.185307 155.534455 24.10364 C 156.7589 25.011418 158.347511 25.470585 160.295011 25.470585 C 162.052512 25.470585 163.451123 25.127529 164.48029 24.441418 C 165.520012 23.750029 166.037234 22.789474 166.037234 21.554473 C 166.037234 20.388084 165.541123 19.453918 164.543623 18.751973 C 163.546123 18.050029 161.915289 17.437806 159.651122 16.915306 C 156.590011 16.176417 154.346955 15.236973 152.916677 14.086417 C 151.496955 12.930584 150.784455 11.39475 150.784455 9.468361 C 150.784455 7.35725 151.586677 5.678916 153.185844 4.443916 C 154.790289 3.208916 156.959456 2.591416 159.693345 2.591416 C 162.495845 2.591416 164.712512 3.29336 166.33279 4.697249 C 167.963623 6.095861 168.792235 8.006416 168.813346 10.434195 L 165.71529 10.434195 C 165.694179 8.935305 165.140012 7.753083 164.05279 6.892805 C 162.976123 6.021972 161.524734 5.583916 159.693345 5.583916 C 157.909456 5.583916 156.510844 5.937527 155.502789 6.639472 C 154.494733 7.336139 153.988066 8.275583 153.988066 9.468361 C 153.988066 10.486972 154.457789 11.34725 155.397233 12.049195 C 156.336678 12.751139 158.020289 13.400306 160.442789 13.991417 C 163.62529 14.772528 165.889456 15.754195 167.240568 16.93114 C 168.596957 18.108084 169.27779 19.612251 169.27779 21.438362 C 169.27779 23.602251 168.459735 25.312252 166.828901 26.573641 C 165.208623 27.829752 163.028901 28.463085 160.295011 28.463085 Z M 160.295011 28.463085 " stroke="#ffffff" stroke-width="1.893885" stroke-opacity="1" stroke-miterlimit="4"/></g><g fill="#a6a6a6" fill-opacity="1"><g transform="translate(36.570957, 51.388469)"><g><path d="M 6.484375 0 L 0.5 -18.46875 L 2.921875 -18.46875 L 5.484375 -10.5 L 7.65625 -3.71875 L 13.109375 -18.46875 L 15.296875 -18.46875 L 20.75 -3.6875 L 25.5 -18.46875 L 27.9375 -18.46875 L 21.921875 0 L 19.75 0 L 17.25 -6.71875 L 14.1875 -14.953125 L 8.65625 0 Z M 6.484375 0 "/></g></g></g><g fill="#a6a6a6" fill-opacity="1"><g transform="translate(64.994769, 51.388469)"><g><path d="M 2.6875 0 L 2.6875 -18.46875 L 13.90625 -18.46875 L 13.90625 -16.296875 L 5.015625 -16.296875 L 5.015625 -10.46875 L 13.234375 -10.46875 L 13.234375 -8.328125 L 5.015625 -8.328125 L 5.015625 -2.15625 L 14.1875 -2.15625 L 14.1875 0 Z M 2.6875 0 "/></g></g></g><g fill="#a6a6a6" fill-opacity="1"><g transform="translate(80.894168, 51.388469)"><g><path d="M 2.6875 0 L 2.6875 -18.46875 L 9.84375 -18.46875 C 11.613281 -18.46875 13.03125 -18.019531 14.09375 -17.125 C 15.15625 -16.238281 15.6875 -15.050781 15.6875 -13.5625 C 15.6875 -12.664062 15.472656 -11.875 15.046875 -11.1875 C 14.628906 -10.5 14.046875 -9.960938 13.296875 -9.578125 C 14.242188 -9.191406 14.96875 -8.617188 15.46875 -7.859375 C 15.96875 -7.097656 16.21875 -6.203125 16.21875 -5.171875 C 16.21875 -3.566406 15.675781 -2.300781 14.59375 -1.375 C 13.507812 -0.457031 12.039062 0 10.1875 0 Z M 5.015625 -2.15625 L 10.125 -2.15625 C 11.320312 -2.15625 12.238281 -2.425781 12.875 -2.96875 C 13.519531 -3.519531 13.84375 -4.289062 13.84375 -5.28125 C 13.84375 -6.257812 13.515625 -7.015625 12.859375 -7.546875 C 12.210938 -8.085938 11.296875 -8.359375 10.109375 -8.359375 L 5.015625 -8.359375 Z M 5.015625 -10.46875 L 9.78125 -10.46875 C 10.925781 -10.46875 11.800781 -10.722656 12.40625 -11.234375 C 13.007812 -11.742188 13.3125 -12.457031 13.3125 -13.375 C 13.3125 -14.300781 13.003906 -15.019531 12.390625 -15.53125 C 11.773438 -16.039062 10.90625 -16.296875 9.78125 -16.296875 L 5.015625 -16.296875 Z M 5.015625 -10.46875 "/></g></g></g><g clip-path="url(#a04e4a8f99)"><path stroke-linecap="butt" transform="matrix(0.740131, 0, 0, 0.740131, 0.493425, 4.648418)" fill="none" stroke-linejoin="miter" d="M 54.364722 59.997811 L 46.273888 35.055031 L 49.551388 35.055031 L 53.008333 45.816421 L 55.932222 54.968088 L 63.310557 35.055031 L 66.266112 35.055031 L 73.644447 55.015588 L 80.056947 35.055031 L 83.339725 35.055031 L 75.211947 59.997811 L 72.288058 59.997811 L 68.905002 50.914754 L 64.772501 39.794475 L 57.278056 59.997811 Z M 87.635837 59.997811 L 87.635837 35.055031 L 102.783061 35.055031 L 102.783061 37.97892 L 90.76556 37.97892 L 90.76556 45.853365 L 101.885838 45.853365 L 101.885838 48.74031 L 90.76556 48.74031 L 90.76556 57.073922 L 103.173616 57.073922 L 103.173616 59.997811 Z M 109.116395 59.997811 L 109.116395 35.055031 L 118.774729 35.055031 C 121.176118 35.055031 123.091952 35.656697 124.527508 36.854753 C 125.963063 38.058086 126.686119 39.667809 126.686119 41.68392 C 126.686119 42.897809 126.401119 43.969198 125.831119 44.892809 C 125.261119 45.816421 124.464174 46.539476 123.440285 47.061976 C 124.728063 47.584476 125.704452 48.36031 126.380008 49.384199 C 127.060841 50.408088 127.398619 51.616699 127.398619 53.01531 C 127.398619 55.179199 126.665008 56.883922 125.203063 58.129477 C 123.741119 59.375033 121.751396 59.997811 119.233896 59.997811 Z M 112.251395 57.073922 L 119.165285 57.073922 C 120.780285 57.073922 122.015285 56.709755 122.880841 55.970866 C 123.751674 55.237255 124.184452 54.20281 124.184452 52.87281 C 124.184452 51.537532 123.746396 50.513643 122.865007 49.795865 C 121.988896 49.067532 120.743341 48.703365 119.133618 48.703365 L 112.251395 48.703365 Z M 112.251395 45.853365 L 118.706118 45.853365 C 120.247229 45.853365 121.429452 45.505032 122.247507 44.81892 C 123.065563 44.127531 123.471952 43.161698 123.471952 41.926698 C 123.471952 40.670587 123.060285 39.699475 122.231674 39.013364 C 121.397785 38.321975 120.226118 37.97892 118.706118 37.97892 L 112.251395 37.97892 Z M 112.251395 45.853365 " stroke="#ffffff" stroke-width="1.893885" stroke-opacity="1" stroke-miterlimit="4"/></g></svg>